<?xml version="1.0" encoding="utf-8"?>
<!-- Generator: Adobe Illustrator 27.5.0, SVG Export Plug-In . SVG Version: 6.00 Build 0)  -->
<svg version="1.1" xmlns="http://www.w3.org/2000/svg" xmlns:xlink="http://www.w3.org/1999/xlink" x="0px" y="0px"
	 viewBox="0 0 314.5 59.7" style="enable-background:new 0 0 314.5 59.7;" xml:space="preserve">
<style type="text/css">
	.st0{fill:#FFFFFF;}
	.st1{fill:#FEC35A;}
	.st2{fill:#97999C;}
	.st3{fill:#FF0000;}
	.st4{fill:#A0CBC7;}
	.st5{fill:#9D9FA2;}
	.st6{fill:#464547;}
	.st7{fill:#F8B6BA;}
	.st8{fill:#D1D3D4;}
	.st9{fill:#F4EEEC;}
	.st10{fill:#EFE9E7;}
</style>
<g id="BKG_x5F_TOTE_x5F_COLOR">
</g>
<g id="Photo">
</g>
<g id="Mask">
</g>
<g id="Art">
	<g>
		<path class="st5" d="M16.1,46h30v12.5H0V1.1h45v12.5H16.1V46z M14.9,23.4h26.7v12.1H14.9V23.4z"/>
		<path class="st5" d="M73.9,58.5V14H56.3V1.1h51.4V14H90.1v44.5H73.9z"/>
		<path class="st5" d="M136.5,58.5h-16.2V1.1h16.2V58.5z M159.8,36.2h-24.4V22.7h24.4V36.2z M158.7,1.1h16.2v57.4h-16.2V1.1z"/>
		<path class="st5" d="M221.9,59.7c-4.6,0-8.8-0.7-12.7-2.2c-3.9-1.5-7.3-3.6-10.1-6.3c-2.9-2.7-5.1-5.9-6.7-9.5
			c-1.6-3.6-2.4-7.6-2.4-11.9c0-4.3,0.8-8.3,2.4-11.9c1.6-3.6,3.8-6.8,6.7-9.5c2.9-2.7,6.2-4.8,10.1-6.3c3.9-1.5,8.1-2.2,12.7-2.2
			c4.6,0,8.9,0.7,12.8,2.2c3.9,1.5,7.2,3.6,10,6.3c2.8,2.7,5.1,5.9,6.7,9.5c1.6,3.6,2.4,7.6,2.4,11.9c0,4.3-0.8,8.3-2.4,11.9
			c-1.6,3.6-3.8,6.8-6.7,9.5c-2.8,2.7-6.2,4.8-10,6.2C230.8,59,226.5,59.7,221.9,59.7z M221.9,46.2c2.2,0,4.2-0.4,6.1-1.1
			c1.9-0.8,3.5-1.9,4.9-3.3c1.4-1.4,2.5-3.2,3.3-5.2c0.8-2,1.2-4.3,1.2-6.7c0-2.5-0.4-4.8-1.2-6.8c-0.8-2-1.9-3.7-3.3-5.2
			c-1.4-1.4-3-2.6-4.9-3.3c-1.9-0.8-3.9-1.1-6.1-1.1c-2.2,0-4.2,0.4-6.1,1.1c-1.9,0.8-3.5,1.9-4.9,3.3c-1.4,1.4-2.5,3.2-3.3,5.2
			c-0.8,2-1.2,4.3-1.2,6.8c0,2.5,0.4,4.7,1.2,6.7c0.8,2,1.9,3.8,3.3,5.2c1.4,1.4,3,2.6,4.9,3.3C217.7,45.9,219.7,46.2,221.9,46.2z"
			/>
		<path class="st5" d="M289,59.7c-4.7,0-9.2-0.6-13.6-1.8c-4.3-1.2-7.9-2.7-10.6-4.6l5.3-12c2.6,1.6,5.5,3,8.9,4.1
			c3.4,1.1,6.7,1.6,10,1.6c2.2,0,4-0.2,5.4-0.6c1.4-0.4,2.4-1,3-1.6c0.6-0.7,0.9-1.5,0.9-2.4c0-1.3-0.6-2.3-1.8-3.1
			c-1.2-0.8-2.8-1.4-4.7-1.9c-1.9-0.5-4-1-6.4-1.5c-2.3-0.5-4.6-1.1-7-1.9c-2.3-0.8-4.4-1.8-6.4-3c-1.9-1.2-3.5-2.8-4.7-4.8
			c-1.2-2-1.8-4.5-1.8-7.6c0-3.4,0.9-6.6,2.8-9.3c1.9-2.8,4.7-5,8.5-6.7c3.8-1.7,8.5-2.5,14.1-2.5c3.8,0,7.5,0.4,11.1,1.3
			c3.6,0.8,6.9,2.1,9.7,3.7l-5,12.1c-2.7-1.5-5.4-2.6-8.1-3.3c-2.7-0.7-5.3-1.1-7.8-1.1c-2.2,0-4,0.2-5.4,0.7
			c-1.4,0.5-2.4,1.1-3,1.8c-0.6,0.8-0.9,1.6-0.9,2.6c0,1.3,0.6,2.3,1.8,3c1.2,0.7,2.7,1.3,4.7,1.8c1.9,0.5,4.1,0.9,6.4,1.4
			c2.3,0.5,4.6,1.1,7,1.8c2.3,0.7,4.4,1.7,6.4,3c1.9,1.2,3.5,2.8,4.6,4.8c1.2,2,1.8,4.5,1.8,7.5c0,3.3-0.9,6.4-2.8,9.2
			c-1.9,2.8-4.7,5.1-8.4,6.8C299.4,58.8,294.7,59.7,289,59.7z"/>
	</g>
</g>
</svg>
