<?xml version="1.0" encoding="utf-8"?>
<!-- Generator: Adobe Illustrator 27.5.0, SVG Export Plug-In . SVG Version: 6.00 Build 0)  -->
<svg version="1.1" xmlns="http://www.w3.org/2000/svg" xmlns:xlink="http://www.w3.org/1999/xlink" x="0px" y="0px"
	 viewBox="0 0 267.1 76.5" style="enable-background:new 0 0 267.1 76.5;" xml:space="preserve">
<style type="text/css">
	.st0{fill:#FFFFFF;}
	.st1{fill:#FEC35A;}
	.st2{fill:#97999C;}
	.st3{fill:#FF0000;}
	.st4{fill:#A0CBC7;}
	.st5{fill:#9D9FA2;}
	.st6{fill:#464547;}
	.st7{fill:#F8B6BA;}
	.st8{fill:#D1D3D4;}
	.st9{fill:#F4EEEC;}
	.st10{fill:#EFE9E7;}
</style>
<g id="BKG_x5F_TOTE_x5F_COLOR">
</g>
<g id="Photo">
</g>
<g id="Mask">
</g>
<g id="Art">
	<g>
		<path class="st5" d="M11.4,24v-0.2c-1.1-2-1.7-4.3-1.7-6.5C9.7,8.7,18.3,0,29.9,0c8.2,0,12.5,4.3,12.5,8.5c0,2.1-1.1,3.4-3,3.4
			c-3,0-3.6-3.5-3.8-4.4c-0.8-4.3-3-5.7-6.7-5.7c-8.4,0-13.8,6.7-13.8,14.5c0,2.1,0.4,3.8,1,5.2h0.2c3-1.2,6.1-1.9,8.6-1.9
			c4.7,0,6.9,2.1,6.9,4.4c0,2.7-2.9,6.3-9.2,6.3c-4.5,0-7.9-1.9-10-4.6h-0.2c-3.8,3-6.7,7.5-6.7,13.2c0,11.2,7.4,16.6,15.5,16.6
			c8.2,0,13.8-5.6,13.8-11c0-2.1-0.9-3.7-0.9-5.6c0-2.5,1.5-3.6,3-3.6c1.6,0,3.4,1.2,3.4,4.4c0,7.5-10,19.7-23.2,19.7
			C5.9,59.5,0,50.3,0,42.5C0,34.1,5.2,27.8,11.4,24z M17.2,23.1c1.7,2.2,4.4,3.1,6.9,3.1c3.1,0,5.1-1.5,5.1-2.8
			c0-1.1-1.3-2.1-4.4-2.1c-2.4,0-5,0.6-7.5,1.6V23.1z"/>
		<path class="st5" d="M56.3,0.8h45.8l-2.2,15.4h-1c0-12.7-2-13.1-16.6-13.1H82L68.4,54c-0.1,0.3-0.2,0.7-0.2,1
			c0,1.2,1.1,2.4,6.2,2.6v1.1H53.4v-1.1c7-0.3,7.8-2,8.2-3.6L75.2,3.1h-0.4c-14.6,0-16.5,0.4-23.5,13.1h-1L56.3,0.8z"/>
		<path class="st5" d="M109.9,0.8H131v1.1c-6.8,0.3-7.6,2-8,3.6l-6,22.3H143l6-22.3c0.1-0.3,0.2-0.7,0.2-1c0-1.2-1.1-2.4-6.4-2.6
			V0.8h21.1v1.1c-6.8,0.3-7.6,2-8,3.6l-13,48.5c-0.1,0.3-0.2,0.7-0.2,1c0,1.2,1.1,2.4,6.3,2.6v1.1h-21.1v-1.1c6.9-0.3,7.7-2,8.1-3.6
			l6.4-23.7h-26.1L109.9,54c-0.1,0.3-0.2,0.7-0.2,1c0,1.2,1.1,2.4,6.3,2.6v1.1H95v-1.1c6.9-0.3,7.7-2,8.1-3.6l13-48.5
			c0.1-0.3,0.2-0.7,0.2-1c0-1.2-1.1-2.4-6.4-2.6V0.8z"/>
		<path class="st5" d="M180.6,59.5c-11.5,0-18.4-7.2-18.4-19.3C162.2,22.6,177,0,197.3,0c11.5,0,18.5,7.2,18.5,19.3
			C215.7,36.9,200.9,59.5,180.6,59.5z M207.8,18.1c0-7.9-3-15.6-12.2-15.6c-16.6,0-25.5,25.1-25.5,38.7c0,8,3,15.7,12.2,15.7
			C198.9,56.9,207.8,31.7,207.8,18.1z"/>
		<path class="st5" d="M229.3,47.9c0,2.6-2.1,3.4-4.7,3.5c-4.9,0.2-7.3,3.7-7.3,7.7c0,6.6,7.5,15.2,19.1,15.2c10.3,0,20-6.8,20-18.9
			c0-18.5-23-27.6-23-41.2c0-9.8,8.2-14.2,16.2-14.2c7.1,0,10,3.4,12.6,3.4c1.9,0,2.9-0.9,3.9-2.7l0.8,0.2l-4.7,17.5l-0.9-0.2
			c0.2-1.2,0.2-2.4,0.2-3.4c0-9.3-6.3-13-12.1-13c-5.4,0-10.7,3.2-10.7,8.4c0,11.2,23.9,22.1,23.9,41.8c0,14.3-12.5,24.4-26.2,24.4
			c-12.3,0-21.6-8.2-21.6-18.2c0-6.8,4.3-13.4,10.7-13.4C227.9,44.9,229.3,46,229.3,47.9z"/>
	</g>
</g>
</svg>
