<svg width="23" height="23" viewBox="0 0 23 23" fill="#ffffff" xmlns="http://www.w3.org/2000/svg">
<path d="M0 11.4897C0.00349751 5.15407 5.14678 0.0155826 11.5006 3.49308e-05C17.8684 -0.0155127 23.0256 5.16107 23 11.5803C22.9744 17.9548 17.7335 23.0743 11.3615 22.9989C5.18758 22.9262 0.0205964 17.9272 0 11.4897ZM14.2096 13.5098C14.222 13.5276 14.2341 13.5451 14.2465 13.563C14.1066 13.6944 13.9632 13.8227 13.8272 13.9583C13.1024 14.6809 12.3734 15.3992 11.6572 16.1303C10.7296 17.0772 11.0506 18.6063 12.2568 18.9689C12.9509 19.1776 13.5618 18.9829 14.0736 18.4819C14.5733 17.9925 15.0642 17.4938 15.5589 16.999C16.8642 15.6938 18.1676 14.3866 19.4757 13.0838C20.2004 12.3616 20.2265 11.2297 19.5083 10.5339C18.3083 9.37137 17.1425 8.17304 15.9618 6.99064C15.3304 6.35824 14.7031 5.72117 14.0627 5.09733C13.1386 4.19673 11.6168 4.53567 11.2526 5.72778C11.0428 6.41382 11.2251 7.0229 11.7236 7.52859C12.5242 8.34017 13.3352 9.14165 14.1412 9.9478C14.189 9.99561 14.2341 10.0469 14.3106 10.1297C14.1987 10.1297 14.1303 10.1297 14.0619 10.1297C11.9502 10.1297 9.83849 10.1297 7.72677 10.1297C6.69034 10.1297 5.65392 10.125 4.61749 10.1316C3.78664 10.1367 3.06343 10.7975 2.9826 11.6102C2.87767 12.6651 3.64168 13.5086 4.70765 13.509C7.7975 13.5101 10.8874 13.5094 13.9768 13.5094H14.2088L14.2096 13.5098Z" fill="#9D9FA2"/>
</svg>
